<?xml version="1.0" standalone="no"?>
<!DOCTYPE svg PUBLIC "-//W3C//DTD SVG 20010904//EN"
 "http://www.w3.org/TR/2001/REC-SVG-20010904/DTD/svg10.dtd">
<svg version="1.0" xmlns="http://www.w3.org/2000/svg"
 width="1076.000000pt" height="1010.000000pt" viewBox="0 0 1076.000000 1010.000000"
 preserveAspectRatio="xMidYMid meet">

<g transform="translate(0.000000,1010.000000) scale(0.100000,-0.100000)"
fill="#000000" stroke="none">
<path d="M5525 10083 c-195 -24 -399 -70 -535 -120 -69 -26 -82 -28 -160 -21
-47 4 -130 5 -185 2 -109 -6 -345 -33 -358 -41 -5 -3 5 -19 21 -37 33 -35 81
-104 106 -153 l16 -32 -102 -78 c-141 -107 -402 -362 -386 -378 2 -2 60 20
128 49 118 50 448 166 474 166 6 0 29 -29 50 -65 97 -166 320 -444 331 -413 2
7 16 58 30 112 42 159 115 325 191 441 29 44 41 54 72 58 113 18 384 40 572
46 l215 7 -106 51 c-115 55 -252 109 -369 143 -41 13 -78 26 -83 30 -9 8 159
128 233 165 30 15 82 38 115 51 l60 23 -150 -1 c-82 -1 -163 -3 -180 -5z"/>
<path d="M6844 9572 c0 -65 -19 -182 -29 -182 -2 0 -32 13 -67 29 -34 15 -83
37 -108 48 -74 34 -228 80 -350 107 -150 33 -250 49 -256 43 -3 -3 34 -32 83
-66 144 -99 514 -440 530 -487 6 -18 -94 -163 -216 -312 -160 -197 -155 -191
-150 -196 2 -3 33 2 69 10 251 56 616 98 643 75 45 -37 318 -472 398 -633 24
-49 47 -88 52 -88 24 0 -23 525 -60 678 -4 17 -1 22 15 22 29 0 156 -47 227
-84 33 -17 64 -32 68 -34 17 -8 -51 118 -116 218 -95 143 -171 234 -278 332
-72 67 -99 100 -136 168 -82 152 -194 309 -275 387 l-43 42 -1 -77z"/>
<path d="M3722 9535 c-99 -81 -296 -299 -389 -431 -81 -115 -175 -269 -225
-369 -59 -117 -138 -354 -173 -518 -22 -103 -18 -109 24 -32 85 156 209 335
232 335 4 0 28 -39 54 -87 52 -98 117 -203 126 -203 3 0 9 49 13 109 8 142 32
323 54 408 17 66 20 71 112 157 52 49 129 115 170 147 41 33 95 75 120 95 25
20 52 40 60 44 35 20 -7 21 -137 6 -76 -9 -151 -19 -166 -22 l-28 -6 36 78
c49 107 98 195 156 282 27 39 48 72 45 72 -2 0 -40 -29 -84 -65z"/>
<path d="M4910 8903 c-44 -159 -110 -586 -110 -716 0 -34 -4 -67 -8 -74 -7
-11 -97 -52 -397 -178 -88 -37 -196 -85 -240 -108 l-80 -40 70 -32 c94 -43
294 -122 490 -192 185 -68 165 -39 190 -263 19 -175 56 -396 90 -545 14 -60
25 -113 25 -117 0 -24 20 0 55 65 21 39 54 97 73 127 58 91 132 211 132 215 0
5 158 256 171 271 8 10 30 7 102 -13 160 -43 279 -74 377 -98 130 -32 450 -98
455 -93 2 2 -24 33 -58 68 -211 223 -486 538 -526 604 -13 22 -8 31 90 168
145 202 367 496 406 538 35 37 40 50 21 50 -54 0 -637 -155 -799 -213 -53 -19
-101 -32 -105 -28 -8 6 -80 113 -258 388 -40 61 -89 143 -110 182 -20 39 -39
71 -41 71 -2 0 -9 -17 -15 -37z"/>
<path d="M3334 8145 c-62 -98 -199 -394 -219 -477 -5 -20 -19 -31 -60 -48 -74
-30 -163 -87 -170 -109 -9 -29 21 -96 90 -201 l62 -95 6 -180 c7 -190 23 -287
73 -437 24 -72 44 -100 44 -62 0 32 62 200 112 302 l50 103 32 -25 c45 -37
335 -230 374 -250 19 -10 36 -16 38 -14 2 2 -17 43 -41 90 -79 151 -192 470
-181 512 8 34 298 339 413 435 l103 86 -73 3 c-77 3 -338 -19 -508 -44 -36 -5
-47 -3 -52 9 -3 9 -16 114 -27 234 -12 120 -23 220 -25 222 -2 2 -20 -23 -41
-54z"/>
<path d="M7435 7879 c-28 -79 -112 -293 -144 -364 -79 -180 -181 -399 -190
-408 -25 -25 -405 -35 -626 -16 -69 6 -131 9 -137 7 -23 -8 305 -347 460 -476
l33 -27 -58 -90 c-32 -49 -109 -166 -171 -259 -63 -93 -107 -166 -98 -163 8 3
34 11 58 17 142 37 449 173 556 245 20 14 40 25 45 25 16 0 113 -83 152 -130
22 -27 43 -49 46 -49 11 -2 68 133 93 220 13 48 32 136 42 197 16 107 18 112
73 189 72 100 119 191 170 326 37 98 91 281 91 311 0 6 -37 -25 -82 -69 -54
-52 -108 -93 -155 -118 l-72 -37 -5 52 c-3 29 -10 112 -16 183 -11 139 -49
437 -56 444 -2 2 -6 -2 -9 -10z"/>
<path d="M3780 6626 c0 -23 136 -339 196 -455 41 -80 71 -148 67 -152 -5 -4
-53 -20 -108 -35 -88 -25 -117 -28 -242 -29 -160 0 -157 3 -59 -71 126 -96
354 -188 586 -238 l105 -23 85 -88 c143 -147 304 -259 431 -300 41 -13 75 -22
76 -21 2 1 -6 25 -17 53 -20 54 -48 191 -52 263 l-3 45 225 7 c124 5 243 12
265 17 l40 8 -60 27 c-127 58 -421 207 -445 225 l-25 20 18 168 c9 92 28 240
43 328 14 88 28 178 31 200 l5 40 -43 -41 c-24 -22 -69 -60 -99 -84 -30 -25
-76 -63 -102 -86 -43 -37 -222 -160 -304 -208 l-31 -18 -99 68 c-92 63 -407
314 -419 334 -8 12 -65 53 -65 46z"/>
<path d="M6455 6043 c-55 -84 -202 -262 -299 -360 l-111 -113 -157 0 c-138 0
-350 12 -445 24 -18 3 -33 1 -33 -5 0 -15 146 -130 242 -191 l90 -57 -39 -24
c-83 -52 -264 -127 -308 -127 -8 0 -15 -4 -15 -10 0 -20 292 7 500 46 199 38
372 100 621 224 175 86 439 269 534 369 27 29 23 28 -75 -23 -58 -30 -152 -71
-209 -90 -118 -41 -261 -79 -268 -72 -3 3 0 48 6 100 16 139 11 336 -9 336 -4
0 -16 -12 -25 -27z"/>
<path d="M5120 4549 c-413 -34 -808 -157 -1160 -363 -91 -53 -278 -176 -301
-198 -8 -7 -64 -55 -124 -107 -107 -92 -175 -159 -175 -170 1 -3 16 -23 35
-45 l34 -39 106 102 c116 110 318 270 423 334 77 47 328 173 417 210 146 60
341 113 550 149 114 20 165 22 410 22 245 0 296 -2 410 -22 304 -53 472 -108
754 -246 218 -107 474 -288 647 -458 l71 -70 37 38 c20 20 36 40 36 44 0 8
-202 189 -270 243 -55 44 -247 177 -254 177 -3 0 -50 27 -106 61 -221 133
-565 255 -860 304 -251 42 -455 52 -680 34z"/>
<path d="M5293 4315 c-82 -23 -133 -53 -194 -115 -80 -82 -104 -150 -104 -295
0 -99 3 -117 30 -180 34 -82 93 -145 175 -190 47 -25 69 -30 147 -33 82 -4 97
-2 150 22 32 15 68 37 80 48 l22 21 11 -29 c6 -16 13 -35 15 -41 2 -7 20 -13
40 -13 l35 0 0 148 c0 158 9 192 51 192 11 0 19 7 19 18 0 16 -14 17 -157 16
-87 0 -157 -4 -155 -7 1 -4 2 -11 2 -17 0 -5 9 -10 19 -10 37 0 51 -27 51 -99
0 -82 -20 -115 -82 -131 -110 -30 -205 37 -254 180 -24 72 -24 197 -1 266 31
91 123 154 227 154 91 0 192 -60 208 -123 6 -23 15 -33 31 -35 l23 -4 -7 104
c-4 57 -12 108 -17 115 -34 43 -264 67 -365 38z"/>
<path d="M6600 4025 c0 -8 5 -24 12 -34 14 -24 11 -30 -120 -194 -54 -67 -144
-182 -201 -254 -56 -73 -107 -134 -114 -135 -7 -1 -25 -2 -42 -2 -16 -1 -30
-6 -30 -13 0 -6 52 -51 115 -99 63 -48 154 -119 202 -158 48 -39 106 -85 130
-102 l42 -31 83 83 c46 45 83 87 83 92 0 21 -28 19 -66 -4 -67 -41 -88 -34
-217 63 l-116 86 90 116 c50 64 128 166 174 226 46 61 98 125 115 144 29 31
34 33 75 26 26 -3 45 -2 45 3 0 5 -39 39 -87 75 -49 36 -102 80 -120 96 -35
34 -53 39 -53 16z"/>
<path d="M3980 3954 c-182 -101 -290 -232 -293 -353 -2 -61 20 -109 72 -157
81 -77 147 -76 369 10 117 45 172 47 201 10 25 -32 27 -83 6 -124 -23 -44
-109 -108 -171 -126 -64 -18 -99 -13 -171 27 -32 18 -54 25 -58 18 -4 -5 15
-35 42 -65 26 -31 61 -74 78 -95 24 -34 34 -39 55 -34 79 19 212 108 293 195
128 138 128 299 1 397 -34 25 -45 28 -113 27 -68 0 -90 -6 -205 -53 -167 -68
-211 -69 -242 -10 -43 84 71 210 204 226 37 4 60 0 97 -16 26 -11 51 -21 56
-21 17 0 9 27 -14 49 -13 12 -42 46 -63 76 -25 35 -46 55 -59 55 -11 0 -49
-16 -85 -36z"/>
<path d="M5145 3418 c-296 -33 -584 -151 -819 -335 -71 -56 -216 -192 -216
-203 0 -4 14 -22 30 -40 l30 -34 68 68 c84 86 201 177 315 245 232 139 472
203 762 204 181 1 311 -19 475 -73 226 -74 433 -201 596 -366 l101 -103 31 32
c18 18 32 38 32 44 0 15 -163 169 -260 244 -307 239 -751 362 -1145 317z"/>
<path d="M1825 2550 c-74 -13 -164 -49 -212 -83 -144 -103 -166 -312 -44 -435
59 -60 119 -88 311 -147 173 -52 219 -74 243 -115 22 -36 22 -94 0 -130 -48
-83 -237 -112 -376 -60 -92 35 -140 90 -176 203 -9 27 -18 37 -33 37 -20 0
-21 -3 -15 -97 4 -54 7 -132 7 -175 l0 -76 48 -17 c124 -43 355 -57 490 -30
134 27 222 81 292 179 33 45 35 54 39 138 4 107 -11 156 -67 214 -56 58 -139
97 -317 150 -239 70 -270 90 -270 174 0 40 5 54 29 79 39 41 104 61 195 61 90
0 141 -13 197 -48 44 -27 99 -99 110 -144 4 -21 12 -28 29 -28 l23 0 -5 153
c-3 83 -7 153 -8 155 -1 1 -33 12 -71 23 -78 24 -331 35 -419 19z"/>
<path d="M8696 2550 c-137 -25 -247 -88 -300 -173 -25 -41 -30 -61 -34 -131
-4 -67 -1 -91 15 -127 51 -115 136 -168 388 -239 196 -57 240 -89 240 -177 0
-52 -2 -57 -39 -89 -57 -49 -163 -71 -265 -55 -134 21 -221 90 -257 206 -13
40 -23 55 -36 55 -16 0 -18 -9 -17 -82 1 -46 4 -126 8 -178 l6 -94 45 -13 c80
-24 223 -43 316 -43 186 0 337 52 420 143 66 73 84 116 84 207 0 179 -96 263
-400 350 -222 63 -260 88 -260 172 0 93 91 143 250 136 78 -4 104 -9 146 -31
62 -31 120 -97 135 -149 7 -28 15 -38 30 -38 21 0 21 3 14 153 -4 83 -10 155
-14 158 -3 4 -35 14 -71 24 -75 20 -326 29 -404 15z"/>
<path d="M5560 2386 c-123 -36 -244 -135 -294 -240 -53 -112 -68 -243 -42
-367 63 -296 357 -436 678 -324 114 39 108 22 108 287 l0 228 -149 0 -148 0
-18 -67 c-10 -38 -19 -70 -19 -73 -1 -3 33 -7 74 -10 l75 -5 3 -106 c3 -121 7
-115 -89 -129 -189 -27 -318 107 -319 331 0 139 65 260 165 309 77 37 222 28
318 -22 22 -11 42 -16 45 -13 4 4 9 41 10 84 l4 78 -69 22 c-84 29 -263 38
-333 17z"/>
<path d="M7458 2386 c-201 -58 -321 -264 -306 -523 18 -296 224 -480 494 -442
172 24 309 162 350 354 27 124 11 280 -41 392 -35 78 -135 174 -211 203 -73
28 -216 36 -286 16z m214 -162 c38 -20 85 -81 105 -139 26 -73 25 -280 -1
-353 -31 -90 -93 -147 -166 -152 -70 -5 -97 1 -143 31 -161 106 -149 521 17
611 50 28 135 28 188 2z"/>
<path d="M3155 2383 c-71 -16 -82 -23 -95 -66 -12 -41 -148 -392 -175 -452
-23 -50 -165 -418 -165 -427 0 -4 37 -8 83 -8 l82 0 48 125 48 125 153 0 152
0 34 -92 c18 -51 39 -108 46 -125 l13 -33 100 0 c58 0 101 4 101 10 0 5 -4 19
-9 32 -61 148 -330 847 -345 896 -7 22 -24 26 -71 15z m25 -423 c23 -58 44
-111 47 -117 4 -10 -18 -13 -91 -13 -56 0 -96 4 -96 10 0 9 57 179 75 223 11
26 17 16 65 -103z"/>
<path d="M3992 1908 l3 -473 78 -3 77 -3 0 296 c0 162 3 295 8 294 8 0 118
-141 323 -411 l134 -178 68 0 67 0 0 475 0 475 -80 0 -80 0 -2 -311 -3 -312
-50 66 c-27 37 -79 108 -115 158 -36 50 -97 133 -136 183 -38 50 -90 119 -114
154 l-43 62 -69 0 -68 0 2 -472z"/>
<path d="M6510 1905 l0 -475 90 0 90 0 0 475 0 475 -90 0 -90 0 0 -475z"/>
<path d="M5065 809 c-29 -8 -35 -22 -135 -280 -58 -149 -107 -276 -109 -281
-2 -5 20 -8 49 -6 l53 3 25 73 26 73 95 -3 96 -3 25 -72 25 -73 57 0 c32 0 58
4 58 10 0 5 -25 76 -57 157 -31 81 -65 173 -75 203 -38 113 -81 210 -92 209
-6 0 -24 -5 -41 -10z m51 -306 c6 -22 4 -23 -50 -23 -31 0 -56 3 -56 7 0 4 12
38 27 76 l27 69 23 -53 c13 -29 26 -63 29 -76z"/>
<path d="M5745 808 c-86 -32 -155 -104 -176 -182 -6 -23 -9 -79 -7 -126 7
-128 49 -194 153 -241 83 -38 228 -29 303 17 21 14 22 20 22 149 l0 135 -94 0
c-91 0 -94 -1 -100 -24 -3 -13 -9 -31 -12 -40 -5 -13 2 -16 40 -16 l47 0 -3
-72 -3 -73 -40 -7 c-91 -15 -162 36 -186 135 -24 100 11 202 84 248 26 17 44
19 99 16 40 -3 78 -11 94 -21 14 -10 27 -16 28 -14 2 2 6 24 9 49 6 43 4 47
-21 59 -36 17 -198 23 -237 8z"/>
<path d="M3640 525 l0 -285 164 0 164 0 5 28 c3 15 9 35 12 45 7 16 -2 17
-109 17 l-116 0 0 240 0 240 -60 0 -60 0 0 -285z"/>
<path d="M4242 528 l3 -283 171 -3 171 -2 10 45 10 45 -123 0 -124 0 0 75 0
75 84 0 c91 0 83 -5 102 60 5 18 -1 19 -88 22 l-93 3 -3 78 -3 77 99 0 c109 0
117 4 128 58 l7 32 -177 0 -176 0 2 -282z"/>
<path d="M6330 608 c0 -115 5 -220 11 -243 27 -99 143 -152 272 -125 73 15
117 45 145 100 21 42 22 56 22 257 l0 213 -55 0 -55 0 0 -210 0 -210 -29 -32
c-25 -28 -35 -32 -78 -32 -64 0 -99 22 -112 71 -6 21 -11 122 -11 226 l0 187
-55 0 -55 0 0 -202z"/>
<path d="M7080 525 l0 -285 169 0 169 0 6 27 c4 16 9 36 12 46 5 16 -5 17
-121 17 l-126 0 3 73 3 72 85 5 c79 5 85 6 91 30 14 49 14 49 -83 52 l-93 3
-3 77 -3 77 107 3 107 3 12 43 13 42 -174 0 -174 0 0 -285z"/>
</g>
</svg>
