<svg xmlns="http://www.w3.org/2000/svg" version="1.0" viewBox="0 0 495 492">
  <defs/>
  <path d="M264 1c-19 2-40 7-53 12-7 2-9 2-16 2l-19-1-36 5 2 3c4 4 9 11 11 16l2 3-11 8c-14 10-40 36-38 37l13-5c11-5 44-16 47-16l5 6c10 17 32 45 33 42l3-12c4-15 12-32 19-44 3-4 4-5 7-5l58-5 21-1-10-5a257 257 0 00-46-17 107 107 0 0135-22l6-2h-15l-18 1zM396 52l-3 18-7-3-10-5a214 214 0 00-61-15l8 7c15 10 52 44 53 48 1 2-9 17-21 32l-15 19 7-1c25-5 61-10 64-7a505 505 0 0145 72c2 0-2-53-6-68l1-2 23 8 7 4c2 0-5-12-12-22-9-14-17-24-27-33-8-7-10-10-14-17-8-15-19-31-28-39l-4-4zM84 55a291 291 0 00-62 80c-5 12-13 36-17 52-2 10-2 11 3 3 8-15 20-33 23-33l5 9 13 20 1-11 5-41c2-6 2-7 12-16l17-14 12-10 6-4c3-2-1-2-14-1l-17 2-2 1 3-8a197 197 0 0120-35l-8 6zM203 119a448 448 0 00-12 79l-40 17-24 11-8 4 7 3 49 20c19 6 17 3 19 26a534 534 0 0012 66c0 2 2 0 5-6a260 260 0 0121-35l17-27c1-1 3 0 10 2a1784 1784 0 0083 19 789 789 0 01-58-67c-2-3-1-4 9-17a1228 1228 0 0142-59 799 799 0 00-90 24 723 723 0 01-41-64l-1 4zM45 194c-6 10-20 40-22 48 0 2-2 3-6 5-7 3-16 9-17 11-1 3 2 9 9 20l6 9 1 18c1 19 2 29 7 44 3 7 5 10 5 6 0-3 6-20 11-30l5-10 3 2a625 625 0 0041 27 197 197 0 01-22-60c1-4 30-34 41-44l11-9h-8a428 428 0 00-56 4 339 339 0 01-5-46l-4 5zM455 221a767 767 0 01-33 77 253 253 0 01-77 1c-2 1 31 35 46 48l4 2-6 9a3984 3984 0 01-27 43l6-2a267 267 0 0060-27c2 0 11 8 15 13l5 5c1 0 7-14 9-22l4-20c2-11 2-11 8-19 7-10 11-19 17-32l9-32-9 7c-5 6-10 10-15 12l-7 4-1-5-1-19a506 506 0 00-7-43zM90 346a435 435 0 0026 61l-11 3c-9 3-12 3-24 3-16 0-16 0-6 7 13 10 35 19 59 24l10 3 9 8c14 15 30 26 43 30l7 2-1-5-6-26v-5h23l26-2 4-1-6-3c-13-5-42-20-44-22l-3-2 2-17a564 564 0 017-53l1-4-4 4-10 9-11 8c-4 4-22 17-30 21l-3 2-10-7a580 580 0 01-48-38zM357 405c-5 8-20 26-30 36l-11 11h-16a461 461 0 01-47-2c0 1 14 13 24 19l9 6-4 2c-8 5-26 13-31 13l-1 1a227 227 0 00112-27c17-9 44-27 53-37 3-3 2-3-7 2a178 178 0 01-48 16l1-10c1-13 1-33-1-33l-3 3z"/>
</svg>
